<svg xmlns="http://www.w3.org/2000/svg" xmlns:xlink="http://www.w3.org/1999/xlink" contentStyleType="text/css" height="1421px" preserveAspectRatio="none" style="width:907px;height:1421px;background:#FFFFFF;" version="1.1" viewBox="0 0 907 1421" width="907px" zoomAndPan="magnify"><defs/><g><!--class Main--><g id="elem_Main"><rect codeLine="2" fill="#F1F1F1" height="80.5938" id="Main" rx="2.5" ry="2.5" style="stroke:#181818;stroke-width:0.5;" width="203.085" x="643" y="7"/><ellipse cx="723.582" cy="23" fill="#ADD1B2" rx="11" ry="11" style="stroke:#181818;stroke-width:1.0;"/><path d="M726.5508,28.6406 Q725.9727,28.9375 725.332,29.0781 Q724.6914,29.2344 723.9883,29.2344 Q721.4883,29.2344 720.1602,27.5938 Q718.8477,25.9375 718.8477,22.8125 Q718.8477,19.6875 720.1602,18.0313 Q721.4883,16.375 723.9883,16.375 Q724.6914,16.375 725.332,16.5313 Q725.9883,16.6875 726.5508,16.9844 L726.5508,19.7031 Q725.9258,19.125 725.332,18.8594 Q724.7383,18.5781 724.1133,18.5781 Q722.7695,18.5781 722.082,19.6563 Q721.3945,20.7188 721.3945,22.8125 Q721.3945,24.9063 722.082,25.9844 Q722.7695,27.0469 724.1133,27.0469 Q724.7383,27.0469 725.332,26.7813 Q725.9258,26.5 726.5508,25.9219 L726.5508,28.6406 Z " fill="#000000"/><text fill="#000000" font-family="sans-serif" font-size="14" lengthAdjust="spacing" textLength="33.4209" x="744.082" y="27.8467">Main</text><line style="stroke:#181818;stroke-width:0.5;" x1="644" x2="845.085" y1="39" y2="39"/><line style="stroke:#181818;stroke-width:0.5;" x1="644" x2="845.085" y1="47" y2="47"/><ellipse cx="654" cy="60.6484" fill="#84BE84" rx="3" ry="3" style="stroke:#038048;stroke-width:1.0;"/><text fill="#000000" font-family="sans-serif" font-size="14" lengthAdjust="spacing" textLength="177.085" x="663" y="63.9951">main(args: String[]): void</text><rect fill="#F24D5C" height="6" style="stroke:#C82930;stroke-width:1.0;" width="6" x="651" y="73.9453"/><text fill="#000000" font-family="sans-serif" font-size="14" lengthAdjust="spacing" textLength="159.9131" x="663" y="80.292">displayMainMenu(): int</text></g><!--class AppMain--><g id="elem_AppMain"><rect codeLine="7" fill="#F1F1F1" height="80.5938" id="AppMain" rx="2.5" ry="2.5" style="stroke:#181818;stroke-width:0.5;" width="203.085" x="643" y="148"/><ellipse cx="709.9067" cy="164" fill="#ADD1B2" rx="11" ry="11" style="stroke:#181818;stroke-width:1.0;"/><path d="M712.8755,169.6406 Q712.2974,169.9375 711.6567,170.0781 Q711.0161,170.2344 710.313,170.2344 Q707.813,170.2344 706.4849,168.5938 Q705.1724,166.9375 705.1724,163.8125 Q705.1724,160.6875 706.4849,159.0313 Q707.813,157.375 710.313,157.375 Q711.0161,157.375 711.6567,157.5313 Q712.313,157.6875 712.8755,157.9844 L712.8755,160.7031 Q712.2505,160.125 711.6567,159.8594 Q711.063,159.5781 710.438,159.5781 Q709.0942,159.5781 708.4067,160.6563 Q707.7192,161.7188 707.7192,163.8125 Q707.7192,165.9063 708.4067,166.9844 Q709.0942,168.0469 710.438,168.0469 Q711.063,168.0469 711.6567,167.7813 Q712.2505,167.5 712.8755,166.9219 L712.8755,169.6406 Z " fill="#000000"/><text fill="#000000" font-family="sans-serif" font-size="14" lengthAdjust="spacing" textLength="60.7715" x="730.4067" y="168.8467">AppMain</text><line style="stroke:#181818;stroke-width:0.5;" x1="644" x2="845.085" y1="180" y2="180"/><line style="stroke:#181818;stroke-width:0.5;" x1="644" x2="845.085" y1="188" y2="188"/><ellipse cx="654" cy="201.6484" fill="#84BE84" rx="3" ry="3" style="stroke:#038048;stroke-width:1.0;"/><text fill="#000000" font-family="sans-serif" font-size="14" lengthAdjust="spacing" textLength="177.085" x="663" y="204.9951">main(args: String[]): void</text><ellipse cx="654" cy="217.9453" fill="#84BE84" rx="3" ry="3" style="stroke:#038048;stroke-width:1.0;"/><text fill="#000000" font-family="sans-serif" font-size="14" lengthAdjust="spacing" textLength="170.8096" x="663" y="221.292">start(stage: Stage): void</text></g><!--class Order--><g id="elem_Order"><rect codeLine="12" fill="#F1F1F1" height="210.9688" id="Order" rx="2.5" ry="2.5" style="stroke:#181818;stroke-width:0.5;" width="311.0518" x="589" y="652"/><ellipse cx="720.2603" cy="668" fill="#ADD1B2" rx="11" ry="11" style="stroke:#181818;stroke-width:1.0;"/><path d="M723.229,673.6406 Q722.6509,673.9375 722.0103,674.0781 Q721.3696,674.2344 720.6665,674.2344 Q718.1665,674.2344 716.8384,672.5938 Q715.5259,670.9375 715.5259,667.8125 Q715.5259,664.6875 716.8384,663.0313 Q718.1665,661.375 720.6665,661.375 Q721.3696,661.375 722.0103,661.5313 Q722.6665,661.6875 723.229,661.9844 L723.229,664.7031 Q722.604,664.125 722.0103,663.8594 Q721.4165,663.5781 720.7915,663.5781 Q719.4478,663.5781 718.7603,664.6563 Q718.0728,665.7188 718.0728,667.8125 Q718.0728,669.9063 718.7603,670.9844 Q719.4478,672.0469 720.7915,672.0469 Q721.4165,672.0469 722.0103,671.7813 Q722.604,671.5 723.229,670.9219 L723.229,673.6406 Z " fill="#000000"/><text fill="#000000" font-family="sans-serif" font-size="14" lengthAdjust="spacing" textLength="40.0313" x="740.7603" y="672.8467">Order</text><line style="stroke:#181818;stroke-width:0.5;" x1="590" x2="899.0518" y1="684" y2="684"/><rect fill="none" height="6" style="stroke:#C82930;stroke-width:1.0;" width="6" x="597" y="694.6484"/><text fill="#000000" font-family="sans-serif" font-size="14" lengthAdjust="spacing" textLength="121.2354" x="609" y="700.9951">orderNumber: int</text><rect fill="none" height="6" style="stroke:#C82930;stroke-width:1.0;" width="6" x="597" y="710.9453"/><text fill="#000000" font-family="sans-serif" font-size="14" lengthAdjust="spacing" textLength="205.6865" x="609" y="717.292">sandwiches: List&lt;Sandwich&gt;</text><rect fill="none" height="6" style="stroke:#C82930;stroke-width:1.0;" width="6" x="597" y="727.2422"/><text fill="#000000" font-family="sans-serif" font-size="14" lengthAdjust="spacing" textLength="230.3848" x="609" y="733.5889">drinks: Map&lt;DrinkSize, Integer&gt;</text><rect fill="none" height="6" style="stroke:#C82930;stroke-width:1.0;" width="6" x="597" y="743.5391"/><text fill="#000000" font-family="sans-serif" font-size="14" lengthAdjust="spacing" textLength="64.0596" x="609" y="749.8857">chips: int</text><rect fill="none" height="6" style="stroke:#C82930;stroke-width:1.0;" width="6" x="597" y="759.8359"/><text fill="#000000" font-family="sans-serif" font-size="14" lengthAdjust="spacing" textLength="123.293" x="609" y="766.1826">totalPrice: double</text><line style="stroke:#181818;stroke-width:0.5;" x1="590" x2="899.0518" y1="773.4844" y2="773.4844"/><ellipse cx="600" cy="787.1328" fill="#84BE84" rx="3" ry="3" style="stroke:#038048;stroke-width:1.0;"/><text fill="#000000" font-family="sans-serif" font-size="14" lengthAdjust="spacing" textLength="232.9824" x="609" y="790.4795">generateOrderSummary(): String</text><ellipse cx="600" cy="803.4297" fill="#84BE84" rx="3" ry="3" style="stroke:#038048;stroke-width:1.0;"/><text fill="#000000" font-family="sans-serif" font-size="14" lengthAdjust="spacing" textLength="113.6338" x="609" y="806.7764">checkout(): void</text><ellipse cx="600" cy="819.7266" fill="#84BE84" rx="3" ry="3" style="stroke:#038048;stroke-width:1.0;"/><text fill="#000000" font-family="sans-serif" font-size="14" lengthAdjust="spacing" textLength="285.0518" x="609" y="823.0732">addSandwich(sandwich: Sandwich): void</text><ellipse cx="600" cy="836.0234" fill="#84BE84" rx="3" ry="3" style="stroke:#038048;stroke-width:1.0;"/><text fill="#000000" font-family="sans-serif" font-size="14" lengthAdjust="spacing" textLength="215.9336" x="609" y="839.3701">addDrink(size: DrinkSize): void</text><ellipse cx="600" cy="852.3203" fill="#84BE84" rx="3" ry="3" style="stroke:#038048;stroke-width:1.0;"/><text fill="#000000" font-family="sans-serif" font-size="14" lengthAdjust="spacing" textLength="200.5732" x="609" y="855.667">addChips(quantity: int): void</text></g><!--class Sandwich--><g id="elem_Sandwich"><rect codeLine="25" fill="#F1F1F1" height="129.4844" id="Sandwich" rx="2.5" ry="2.5" style="stroke:#181818;stroke-width:0.5;" width="304.9131" x="259" y="923"/><ellipse cx="373.6387" cy="939" fill="#ADD1B2" rx="11" ry="11" style="stroke:#181818;stroke-width:1.0;"/><path d="M376.6074,944.6406 Q376.0293,944.9375 375.3887,945.0781 Q374.748,945.2344 374.0449,945.2344 Q371.5449,945.2344 370.2168,943.5938 Q368.9043,941.9375 368.9043,938.8125 Q368.9043,935.6875 370.2168,934.0313 Q371.5449,932.375 374.0449,932.375 Q374.748,932.375 375.3887,932.5313 Q376.0449,932.6875 376.6074,932.9844 L376.6074,935.7031 Q375.9824,935.125 375.3887,934.8594 Q374.7949,934.5781 374.1699,934.5781 Q372.8262,934.5781 372.1387,935.6563 Q371.4512,936.7188 371.4512,938.8125 Q371.4512,940.9063 372.1387,941.9844 Q372.8262,943.0469 374.1699,943.0469 Q374.7949,943.0469 375.3887,942.7813 Q375.9824,942.5 376.6074,941.9219 L376.6074,944.6406 Z " fill="#000000"/><text fill="#000000" font-family="sans-serif" font-size="14" lengthAdjust="spacing" textLength="67.1357" x="394.1387" y="943.8467">Sandwich</text><line style="stroke:#181818;stroke-width:0.5;" x1="260" x2="562.9131" y1="955" y2="955"/><rect fill="none" height="6" style="stroke:#C82930;stroke-width:1.0;" width="6" x="267" y="965.6484"/><text fill="#000000" font-family="sans-serif" font-size="14" lengthAdjust="spacing" textLength="91.3281" x="279" y="971.9951">bread: Bread</text><rect fill="none" height="6" style="stroke:#C82930;stroke-width:1.0;" width="6" x="267" y="981.9453"/><text fill="#000000" font-family="sans-serif" font-size="14" lengthAdjust="spacing" textLength="172.9287" x="279" y="988.292">toppings: Set&lt;Topping&gt;</text><rect fill="none" height="6" style="stroke:#C82930;stroke-width:1.0;" width="6" x="267" y="998.2422"/><text fill="#000000" font-family="sans-serif" font-size="14" lengthAdjust="spacing" textLength="132.3027" x="279" y="1004.5889">isToasted: boolean</text><line style="stroke:#181818;stroke-width:0.5;" x1="260" x2="562.9131" y1="1011.8906" y2="1011.8906"/><ellipse cx="270" cy="1025.5391" fill="#84BE84" rx="3" ry="3" style="stroke:#038048;stroke-width:1.0;"/><text fill="#000000" font-family="sans-serif" font-size="14" lengthAdjust="spacing" textLength="251.7949" x="279" y="1028.8857">addTopping(topping: Topping): void</text><ellipse cx="270" cy="1041.8359" fill="#84BE84" rx="3" ry="3" style="stroke:#038048;stroke-width:1.0;"/><text fill="#000000" font-family="sans-serif" font-size="14" lengthAdjust="spacing" textLength="278.9131" x="279" y="1045.1826">removeTopping(topping: Topping): void</text></g><!--class Bread--><g id="elem_Bread"><rect codeLine="33" fill="#F1F1F1" height="113.1875" id="Bread" rx="2.5" ry="2.5" style="stroke:#181818;stroke-width:0.5;" width="289.1084" x="143" y="1120"/><ellipse cx="262.5845" cy="1136" fill="#ADD1B2" rx="11" ry="11" style="stroke:#181818;stroke-width:1.0;"/><path d="M265.5532,1141.6406 Q264.9751,1141.9375 264.3345,1142.0781 Q263.6938,1142.2344 262.9907,1142.2344 Q260.4907,1142.2344 259.1626,1140.5938 Q257.8501,1138.9375 257.8501,1135.8125 Q257.8501,1132.6875 259.1626,1131.0313 Q260.4907,1129.375 262.9907,1129.375 Q263.6938,1129.375 264.3345,1129.5313 Q264.9907,1129.6875 265.5532,1129.9844 L265.5532,1132.7031 Q264.9282,1132.125 264.3345,1131.8594 Q263.7407,1131.5781 263.1157,1131.5781 Q261.772,1131.5781 261.0845,1132.6563 Q260.397,1133.7188 260.397,1135.8125 Q260.397,1137.9063 261.0845,1138.9844 Q261.772,1140.0469 263.1157,1140.0469 Q263.7407,1140.0469 264.3345,1139.7813 Q264.9282,1139.5 265.5532,1138.9219 L265.5532,1141.6406 Z " fill="#000000"/><text fill="#000000" font-family="sans-serif" font-size="14" lengthAdjust="spacing" textLength="41.4395" x="283.0845" y="1140.8467">Bread</text><line style="stroke:#181818;stroke-width:0.5;" x1="144" x2="431.1084" y1="1152" y2="1152"/><rect fill="none" height="6" style="stroke:#C82930;stroke-width:1.0;" width="6" x="151" y="1162.6484"/><text fill="#000000" font-family="sans-serif" font-size="14" lengthAdjust="spacing" textLength="160.002" x="163" y="1168.9951">breadType: BreadType</text><rect fill="none" height="6" style="stroke:#C82930;stroke-width:1.0;" width="6" x="151" y="1178.9453"/><text fill="#000000" font-family="sans-serif" font-size="14" lengthAdjust="spacing" textLength="148.8047" x="163" y="1185.292">breadSize: BreadSize</text><line style="stroke:#181818;stroke-width:0.5;" x1="144" x2="431.1084" y1="1192.5938" y2="1192.5938"/><ellipse cx="154" cy="1206.2422" fill="#84BE84" rx="3" ry="3" style="stroke:#038048;stroke-width:1.0;"/><text fill="#000000" font-family="sans-serif" font-size="14" lengthAdjust="spacing" textLength="263.1084" x="163" y="1209.5889">setBreadType(type: BreadType): void</text><ellipse cx="154" cy="1222.5391" fill="#84BE84" rx="3" ry="3" style="stroke:#038048;stroke-width:1.0;"/><text fill="#000000" font-family="sans-serif" font-size="14" lengthAdjust="spacing" textLength="247.7822" x="163" y="1225.8857">setBreadSize(size: BreadSize): void</text></g><!--class Topping--><g id="elem_Topping"><rect codeLine="40" fill="#F1F1F1" height="129.4844" id="Topping" rx="2.5" ry="2.5" style="stroke:#181818;stroke-width:0.5;" width="139.8457" x="466.5" y="1112"/><ellipse cx="504.5875" cy="1128" fill="#ADD1B2" rx="11" ry="11" style="stroke:#181818;stroke-width:1.0;"/><path d="M507.5563,1133.6406 Q506.9782,1133.9375 506.3375,1134.0781 Q505.6969,1134.2344 504.9938,1134.2344 Q502.4938,1134.2344 501.1657,1132.5938 Q499.8532,1130.9375 499.8532,1127.8125 Q499.8532,1124.6875 501.1657,1123.0313 Q502.4938,1121.375 504.9938,1121.375 Q505.6969,1121.375 506.3375,1121.5313 Q506.9938,1121.6875 507.5563,1121.9844 L507.5563,1124.7031 Q506.9313,1124.125 506.3375,1123.8594 Q505.7438,1123.5781 505.1188,1123.5781 Q503.775,1123.5781 503.0875,1124.6563 Q502.4,1125.7188 502.4,1127.8125 Q502.4,1129.9063 503.0875,1130.9844 Q503.775,1132.0469 505.1188,1132.0469 Q505.7438,1132.0469 506.3375,1131.7813 Q506.9313,1131.5 507.5563,1130.9219 L507.5563,1133.6406 Z " fill="#000000"/><text fill="#000000" font-family="sans-serif" font-size="14" lengthAdjust="spacing" textLength="56.54" x="523.7181" y="1132.8467">Topping</text><line style="stroke:#181818;stroke-width:0.5;" x1="467.5" x2="605.3457" y1="1144" y2="1144"/><rect fill="none" height="6" style="stroke:#C82930;stroke-width:1.0;" width="6" x="474.5" y="1154.6484"/><text fill="#000000" font-family="sans-serif" font-size="14" lengthAdjust="spacing" textLength="80.2471" x="486.5" y="1160.9951">meat: Meat</text><rect fill="none" height="6" style="stroke:#C82930;stroke-width:1.0;" width="6" x="474.5" y="1170.9453"/><text fill="#000000" font-family="sans-serif" font-size="14" lengthAdjust="spacing" textLength="110.6533" x="486.5" y="1177.292">cheese: Cheese</text><rect fill="none" height="6" style="stroke:#C82930;stroke-width:1.0;" width="6" x="474.5" y="1187.2422"/><text fill="#000000" font-family="sans-serif" font-size="14" lengthAdjust="spacing" textLength="113.8457" x="486.5" y="1193.5889">regular: Regular</text><rect fill="none" height="6" style="stroke:#C82930;stroke-width:1.0;" width="6" x="474.5" y="1203.5391"/><text fill="#000000" font-family="sans-serif" font-size="14" lengthAdjust="spacing" textLength="92.873" x="486.5" y="1209.8857">sauce: Sauce</text><rect fill="none" height="6" style="stroke:#C82930;stroke-width:1.0;" width="6" x="474.5" y="1219.8359"/><text fill="#000000" font-family="sans-serif" font-size="14" lengthAdjust="spacing" textLength="113.2783" x="486.5" y="1226.1826">isExtra: boolean</text><line style="stroke:#181818;stroke-width:0.5;" x1="467.5" x2="605.3457" y1="1233.4844" y2="1233.4844"/></g><!--class Home--><g id="elem_Home"><rect codeLine="49" fill="#F1F1F1" height="96.8906" id="Home" rx="2.5" ry="2.5" style="stroke:#181818;stroke-width:0.5;" width="145.499" x="672" y="289"/><ellipse cx="719.8276" cy="305" fill="#ADD1B2" rx="11" ry="11" style="stroke:#181818;stroke-width:1.0;"/><path d="M722.7964,310.6406 Q722.2183,310.9375 721.5776,311.0781 Q720.937,311.2344 720.2339,311.2344 Q717.7339,311.2344 716.4058,309.5938 Q715.0933,307.9375 715.0933,304.8125 Q715.0933,301.6875 716.4058,300.0313 Q717.7339,298.375 720.2339,298.375 Q720.937,298.375 721.5776,298.5313 Q722.2339,298.6875 722.7964,298.9844 L722.7964,301.7031 Q722.1714,301.125 721.5776,300.8594 Q720.9839,300.5781 720.3589,300.5781 Q719.0151,300.5781 718.3276,301.6563 Q717.6401,302.7188 717.6401,304.8125 Q717.6401,306.9063 718.3276,307.9844 Q719.0151,309.0469 720.3589,309.0469 Q720.9839,309.0469 721.5776,308.7813 Q722.1714,308.5 722.7964,307.9219 L722.7964,310.6406 Z " fill="#000000"/><text fill="#000000" font-family="sans-serif" font-size="14" lengthAdjust="spacing" textLength="41.3438" x="740.3276" y="309.8467">Home</text><line style="stroke:#181818;stroke-width:0.5;" x1="673" x2="816.499" y1="321" y2="321"/><rect fill="none" height="6" style="stroke:#C82930;stroke-width:1.0;" width="6" x="680" y="331.6484"/><text fill="#000000" font-family="sans-serif" font-size="14" lengthAdjust="spacing" textLength="88.4844" x="692" y="337.9951">stage: Stage</text><line style="stroke:#181818;stroke-width:0.5;" x1="673" x2="816.499" y1="345.2969" y2="345.2969"/><ellipse cx="683" cy="358.9453" fill="#84BE84" rx="3" ry="3" style="stroke:#038048;stroke-width:1.0;"/><text fill="#000000" font-family="sans-serif" font-size="14" lengthAdjust="spacing" textLength="119.499" x="692" y="362.292">goToShop(): void</text><ellipse cx="683" cy="375.2422" fill="#84BE84" rx="3" ry="3" style="stroke:#038048;stroke-width:1.0;"/><text fill="#000000" font-family="sans-serif" font-size="14" lengthAdjust="spacing" textLength="103.3457" x="692" y="378.5889">exitApp(): void</text></g><!--class Shop--><g id="elem_Shop"><rect codeLine="55" fill="#F1F1F1" height="145.7813" id="Shop" rx="2.5" ry="2.5" style="stroke:#181818;stroke-width:0.5;" width="187.4922" x="651" y="446"/><ellipse cx="722.8901" cy="462" fill="#ADD1B2" rx="11" ry="11" style="stroke:#181818;stroke-width:1.0;"/><path d="M725.8589,467.6406 Q725.2808,467.9375 724.6401,468.0781 Q723.9995,468.2344 723.2964,468.2344 Q720.7964,468.2344 719.4683,466.5938 Q718.1558,464.9375 718.1558,461.8125 Q718.1558,458.6875 719.4683,457.0313 Q720.7964,455.375 723.2964,455.375 Q723.9995,455.375 724.6401,455.5313 Q725.2964,455.6875 725.8589,455.9844 L725.8589,458.7031 Q725.2339,458.125 724.6401,457.8594 Q724.0464,457.5781 723.4214,457.5781 Q722.0776,457.5781 721.3901,458.6563 Q720.7026,459.7188 720.7026,461.8125 Q720.7026,463.9063 721.3901,464.9844 Q722.0776,466.0469 723.4214,466.0469 Q724.0464,466.0469 724.6401,465.7813 Q725.2339,465.5 725.8589,464.9219 L725.8589,467.6406 Z " fill="#000000"/><text fill="#000000" font-family="sans-serif" font-size="14" lengthAdjust="spacing" textLength="35.2119" x="743.3901" y="466.8467">Shop</text><line style="stroke:#181818;stroke-width:0.5;" x1="652" x2="837.4922" y1="478" y2="478"/><rect fill="none" height="6" style="stroke:#C82930;stroke-width:1.0;" width="6" x="659" y="488.6484"/><text fill="#000000" font-family="sans-serif" font-size="14" lengthAdjust="spacing" textLength="86.7754" x="671" y="494.9951">order: Order</text><rect fill="none" height="6" style="stroke:#C82930;stroke-width:1.0;" width="6" x="659" y="504.9453"/><text fill="#000000" font-family="sans-serif" font-size="14" lengthAdjust="spacing" textLength="91.3281" x="671" y="511.292">bread: Bread</text><rect fill="none" height="6" style="stroke:#C82930;stroke-width:1.0;" width="6" x="659" y="521.2422"/><text fill="#000000" font-family="sans-serif" font-size="14" lengthAdjust="spacing" textLength="141.8457" x="671" y="527.5889">sandwich: Sandwich</text><line style="stroke:#181818;stroke-width:0.5;" x1="652" x2="837.4922" y1="534.8906" y2="534.8906"/><ellipse cx="662" cy="548.5391" fill="#84BE84" rx="3" ry="3" style="stroke:#038048;stroke-width:1.0;"/><text fill="#000000" font-family="sans-serif" font-size="14" lengthAdjust="spacing" textLength="161.4922" x="671" y="551.8857">selectBreadSize(): void</text><ellipse cx="662" cy="564.8359" fill="#84BE84" rx="3" ry="3" style="stroke:#038048;stroke-width:1.0;"/><text fill="#000000" font-family="sans-serif" font-size="14" lengthAdjust="spacing" textLength="132.6104" x="671" y="568.1826">addTopping(): void</text><ellipse cx="662" cy="581.1328" fill="#84BE84" rx="3" ry="3" style="stroke:#038048;stroke-width:1.0;"/><text fill="#000000" font-family="sans-serif" font-size="14" lengthAdjust="spacing" textLength="113.6338" x="671" y="584.4795">checkout(): void</text></g><!--class BreadType--><g id="elem_BreadType"><rect codeLine="65" fill="#F1F1F1" height="113.1875" id="BreadType" rx="2.5" ry="2.5" style="stroke:#181818;stroke-width:0.5;" width="107.7764" x="161.5" y="1301"/><ellipse cx="176.5" cy="1317" fill="#EB937F" rx="11" ry="11" style="stroke:#181818;stroke-width:1.0;"/><path d="M180.6094,1323 L172.8906,1323 L172.8906,1310.6094 L180.6094,1310.6094 L180.6094,1312.7656 L175.3438,1312.7656 L175.3438,1315.4375 L180.1094,1315.4375 L180.1094,1317.5938 L175.3438,1317.5938 L175.3438,1320.8438 L180.6094,1320.8438 L180.6094,1323 Z " fill="#000000"/><text fill="#000000" font-family="sans-serif" font-size="14" lengthAdjust="spacing" textLength="75.7764" x="190.5" y="1321.8467">BreadType</text><line style="stroke:#181818;stroke-width:0.5;" x1="162.5" x2="268.2764" y1="1333" y2="1333"/><text fill="#000000" font-family="sans-serif" font-size="14" lengthAdjust="spacing" textLength="45.8965" x="167.5" y="1349.9951">WHITE</text><text fill="#000000" font-family="sans-serif" font-size="14" lengthAdjust="spacing" textLength="51.3447" x="167.5" y="1366.292">WHEAT</text><text fill="#000000" font-family="sans-serif" font-size="14" lengthAdjust="spacing" textLength="27.125" x="167.5" y="1382.5889">RYE</text><text fill="#000000" font-family="sans-serif" font-size="14" lengthAdjust="spacing" textLength="41.5898" x="167.5" y="1398.8857">WRAP</text><line style="stroke:#181818;stroke-width:0.5;" x1="162.5" x2="268.2764" y1="1406.1875" y2="1406.1875"/></g><!--class BreadSize--><g id="elem_BreadSize"><rect codeLine="72" fill="#F1F1F1" height="96.8906" id="BreadSize" rx="2.5" ry="2.5" style="stroke:#181818;stroke-width:0.5;" width="111.3672" x="305" y="1309"/><ellipse cx="324.1353" cy="1325" fill="#EB937F" rx="11" ry="11" style="stroke:#181818;stroke-width:1.0;"/><path d="M328.2446,1331 L320.5259,1331 L320.5259,1318.6094 L328.2446,1318.6094 L328.2446,1320.7656 L322.979,1320.7656 L322.979,1323.4375 L327.7446,1323.4375 L327.7446,1325.5938 L322.979,1325.5938 L322.979,1328.8438 L328.2446,1328.8438 L328.2446,1331 Z " fill="#000000"/><text fill="#000000" font-family="sans-serif" font-size="14" lengthAdjust="spacing" textLength="70.1777" x="339.0542" y="1329.8467">BreadSize</text><line style="stroke:#181818;stroke-width:0.5;" x1="306" x2="415.3672" y1="1341" y2="1341"/><text fill="#000000" font-family="sans-serif" font-size="14" lengthAdjust="spacing" textLength="80.9512" x="311" y="1357.9951">FOUR_INCH</text><text fill="#000000" font-family="sans-serif" font-size="14" lengthAdjust="spacing" textLength="84.8066" x="311" y="1374.292">EIGHT_INCH</text><text fill="#000000" font-family="sans-serif" font-size="14" lengthAdjust="spacing" textLength="99.3672" x="311" y="1390.5889">TWELVE_INCH</text><line style="stroke:#181818;stroke-width:0.5;" x1="306" x2="415.3672" y1="1397.8906" y2="1397.8906"/></g><!--class DrinkSize--><g id="elem_DrinkSize"><rect codeLine="78" fill="#F1F1F1" height="96.8906" id="DrinkSize" rx="2.5" ry="2.5" style="stroke:#181818;stroke-width:0.5;" width="98.1445" x="695.5" y="939"/><ellipse cx="710.5" cy="955" fill="#EB937F" rx="11" ry="11" style="stroke:#181818;stroke-width:1.0;"/><path d="M714.6094,961 L706.8906,961 L706.8906,948.6094 L714.6094,948.6094 L714.6094,950.7656 L709.3438,950.7656 L709.3438,953.4375 L714.1094,953.4375 L714.1094,955.5938 L709.3438,955.5938 L709.3438,958.8438 L714.6094,958.8438 L714.6094,961 Z " fill="#000000"/><text fill="#000000" font-family="sans-serif" font-size="14" lengthAdjust="spacing" textLength="66.1445" x="724.5" y="959.8467">DrinkSize</text><line style="stroke:#181818;stroke-width:0.5;" x1="696.5" x2="792.6445" y1="971" y2="971"/><text fill="#000000" font-family="sans-serif" font-size="14" lengthAdjust="spacing" textLength="46.1426" x="701.5" y="987.9951">SMALL</text><text fill="#000000" font-family="sans-serif" font-size="14" lengthAdjust="spacing" textLength="58.1602" x="701.5" y="1004.292">MEDIUM</text><text fill="#000000" font-family="sans-serif" font-size="14" lengthAdjust="spacing" textLength="46.7988" x="701.5" y="1020.5889">LARGE</text><line style="stroke:#181818;stroke-width:0.5;" x1="696.5" x2="792.6445" y1="1027.8906" y2="1027.8906"/></g><!--class SandwichBuilder--><g id="elem_SandwichBuilder"><rect codeLine="97" fill="#F1F1F1" height="96.8906" id="SandwichBuilder" rx="2.5" ry="2.5" style="stroke:#181818;stroke-width:0.5;" width="227.209" x="7" y="709"/><ellipse cx="58.0303" cy="725" fill="#ADD1B2" rx="11" ry="11" style="stroke:#181818;stroke-width:1.0;"/><path d="M60.999,730.6406 Q60.4209,730.9375 59.7803,731.0781 Q59.1396,731.2344 58.4365,731.2344 Q55.9365,731.2344 54.6084,729.5938 Q53.2959,727.9375 53.2959,724.8125 Q53.2959,721.6875 54.6084,720.0313 Q55.9365,718.375 58.4365,718.375 Q59.1396,718.375 59.7803,718.5313 Q60.4365,718.6875 60.999,718.9844 L60.999,721.7031 Q60.374,721.125 59.7803,720.8594 Q59.1865,720.5781 58.5615,720.5781 Q57.2178,720.5781 56.5303,721.6563 Q55.8428,722.7188 55.8428,724.8125 Q55.8428,726.9063 56.5303,727.9844 Q57.2178,729.0469 58.5615,729.0469 Q59.1865,729.0469 59.7803,728.7813 Q60.374,728.5 60.999,727.9219 L60.999,730.6406 Z " fill="#000000"/><text fill="#000000" font-family="sans-serif" font-size="14" lengthAdjust="spacing" textLength="116.6484" x="78.5303" y="729.8467">SandwichBuilder</text><line style="stroke:#181818;stroke-width:0.5;" x1="8" x2="233.209" y1="741" y2="741"/><line style="stroke:#181818;stroke-width:0.5;" x1="8" x2="233.209" y1="749" y2="749"/><ellipse cx="18" cy="762.6484" fill="#84BE84" rx="3" ry="3" style="stroke:#038048;stroke-width:1.0;"/><text fill="#000000" font-family="sans-serif" font-size="14" lengthAdjust="spacing" textLength="201.209" x="27" y="765.9951">sandwichScreen(): Sandwich</text><ellipse cx="18" cy="778.9453" fill="#84BE84" rx="3" ry="3" style="stroke:#038048;stroke-width:1.0;"/><text fill="#000000" font-family="sans-serif" font-size="14" lengthAdjust="spacing" textLength="132.7539" x="27" y="782.292">selectBread(): void</text><ellipse cx="18" cy="795.2422" fill="#84BE84" rx="3" ry="3" style="stroke:#038048;stroke-width:1.0;"/><text fill="#000000" font-family="sans-serif" font-size="14" lengthAdjust="spacing" textLength="155.1484" x="27" y="798.5889">selectToppings(): void</text></g><!--class SpecialsManager--><g id="elem_SpecialsManager"><rect codeLine="103" fill="#F1F1F1" height="80.5938" id="SpecialsManager" rx="2.5" ry="2.5" style="stroke:#181818;stroke-width:0.5;" width="285.1094" x="269" y="717"/><ellipse cx="347.7534" cy="733" fill="#ADD1B2" rx="11" ry="11" style="stroke:#181818;stroke-width:1.0;"/><path d="M350.7222,738.6406 Q350.144,738.9375 349.5034,739.0781 Q348.8628,739.2344 348.1597,739.2344 Q345.6597,739.2344 344.3315,737.5938 Q343.019,735.9375 343.019,732.8125 Q343.019,729.6875 344.3315,728.0313 Q345.6597,726.375 348.1597,726.375 Q348.8628,726.375 349.5034,726.5313 Q350.1597,726.6875 350.7222,726.9844 L350.7222,729.7031 Q350.0972,729.125 349.5034,728.8594 Q348.9097,728.5781 348.2847,728.5781 Q346.9409,728.5781 346.2534,729.6563 Q345.5659,730.7188 345.5659,732.8125 Q345.5659,734.9063 346.2534,735.9844 Q346.9409,737.0469 348.2847,737.0469 Q348.9097,737.0469 349.5034,736.7813 Q350.0972,736.5 350.7222,735.9219 L350.7222,738.6406 Z " fill="#000000"/><text fill="#000000" font-family="sans-serif" font-size="14" lengthAdjust="spacing" textLength="119.1025" x="368.2534" y="737.8467">SpecialsManager</text><line style="stroke:#181818;stroke-width:0.5;" x1="270" x2="553.1094" y1="749" y2="749"/><line style="stroke:#181818;stroke-width:0.5;" x1="270" x2="553.1094" y1="757" y2="757"/><ellipse cx="280" cy="770.6484" fill="#84BE84" rx="3" ry="3" style="stroke:#038048;stroke-width:1.0;"/><text fill="#000000" font-family="sans-serif" font-size="14" lengthAdjust="spacing" text-decoration="underline" textLength="157.9307" x="289" y="773.9951">createBLT(): Sandwich</text><ellipse cx="280" cy="786.9453" fill="#84BE84" rx="3" ry="3" style="stroke:#038048;stroke-width:1.0;"/><text fill="#000000" font-family="sans-serif" font-size="14" lengthAdjust="spacing" text-decoration="underline" textLength="259.1094" x="289" y="790.292">createPhillyCheesesteak(): Sandwich</text></g><!--link Main to AppMain--><g id="link_Main_AppMain"><path codeLine="85" d="M744.5,88.33 C744.5,106.94 744.5,123.05 744.5,141.66 " fill="none" id="Main-to-AppMain" style="stroke:#181818;stroke-width:1.0;"/><polygon fill="#181818" points="744.5,147.66,748.5,138.66,744.5,142.66,740.5,138.66,744.5,147.66" style="stroke:#181818;stroke-width:1.0;"/></g><!--link AppMain to Home--><g id="link_AppMain_Home"><path codeLine="86" d="M744.5,229.28 C744.5,247.65 744.5,263.6 744.5,282.84 " fill="none" id="AppMain-to-Home" style="stroke:#181818;stroke-width:1.0;"/><polygon fill="#181818" points="744.5,288.84,748.5,279.84,744.5,283.84,740.5,279.84,744.5,288.84" style="stroke:#181818;stroke-width:1.0;"/></g><!--link Home to Shop--><g id="link_Home_Shop"><path codeLine="87" d="M744.5,386.13 C744.5,404.41 744.5,419.71 744.5,439.78 " fill="none" id="Home-to-Shop" style="stroke:#181818;stroke-width:1.0;"/><polygon fill="#181818" points="744.5,445.78,748.5,436.78,744.5,440.78,740.5,436.78,744.5,445.78" style="stroke:#181818;stroke-width:1.0;"/></g><!--link Shop to Order--><g id="link_Shop_Order"><path codeLine="88" d="M744.5,592.24 C744.5,610.99 744.5,625.56 744.5,645.62 " fill="none" id="Shop-to-Order" style="stroke:#181818;stroke-width:1.0;"/><polygon fill="#181818" points="744.5,651.62,748.5,642.62,744.5,646.62,740.5,642.62,744.5,651.62" style="stroke:#181818;stroke-width:1.0;"/></g><!--reverse link Order to Sandwich--><g id="link_Order_Sandwich"><path codeLine="89" d="M581.7386,869.9395 C551.9886,890.3095 531.56,904.3 504.47,922.84 " fill="none" id="Order-backto-Sandwich" style="stroke:#181818;stroke-width:1.0;"/><polygon fill="#181818" points="591.64,863.16,584.4295,863.2493,581.7386,869.9395,588.9491,869.8502,591.64,863.16" style="stroke:#181818;stroke-width:1.0;"/><text fill="#000000" font-family="sans-serif" font-size="13" lengthAdjust="spacing" textLength="8.271" x="572.6185" y="883.1892">1</text><text fill="#000000" font-family="sans-serif" font-size="13" lengthAdjust="spacing" textLength="6.5" x="508.3426" y="911.9952">*</text></g><!--reverse link Sandwich to Bread--><g id="link_Sandwich_Bread"><path codeLine="90" d="M362.7156,1062.0693 C348.1056,1084.0893 338.5,1098.59 324.35,1119.92 " fill="none" id="Sandwich-backto-Bread" style="stroke:#181818;stroke-width:1.0;"/><polygon fill="#181818" points="369.35,1052.07,362.6997,1054.8582,362.7156,1062.0693,369.3659,1059.2811,369.35,1052.07" style="stroke:#181818;stroke-width:1.0;"/><text fill="#000000" font-family="sans-serif" font-size="13" lengthAdjust="spacing" textLength="8.271" x="356.0346" y="1072.4497">1</text><text fill="#000000" font-family="sans-serif" font-size="13" lengthAdjust="spacing" textLength="8.271" x="320.5693" y="1108.7731">1</text></g><!--reverse link Sandwich to Topping--><g id="link_Sandwich_Topping"><path codeLine="91" d="M460.6619,1062.0442 C473.5519,1081.3142 481.02,1092.51 493.91,1111.79 " fill="none" id="Sandwich-backto-Topping" style="stroke:#181818;stroke-width:1.0;"/><polygon fill="#181818" points="453.99,1052.07,454.0012,1059.2811,460.6619,1062.0442,460.6507,1054.8331,453.99,1052.07" style="stroke:#181818;stroke-width:1.0;"/><text fill="#000000" font-family="sans-serif" font-size="13" lengthAdjust="spacing" textLength="8.271" x="450.4611" y="1072.4497">1</text><text fill="#000000" font-family="sans-serif" font-size="13" lengthAdjust="spacing" textLength="6.5" x="482.9594" y="1100.9397">*</text></g><!--link Bread to BreadType--><g id="link_Bread_BreadType"><path codeLine="92" d="M265.11,1233.16 C256.44,1254.71 248.7795,1273.7636 240.1095,1295.3136 " fill="none" id="Bread-to-BreadType" style="stroke:#181818;stroke-width:1.0;"/><polygon fill="#181818" points="237.87,1300.88,244.9401,1294.0234,239.7362,1296.2413,237.5183,1291.0374,237.87,1300.88" style="stroke:#181818;stroke-width:1.0;"/></g><!--link Bread to BreadSize--><g id="link_Bread_BreadSize"><path codeLine="93" d="M310.2,1233.16 C320.08,1257.38 329.2634,1279.9146 338.7534,1303.1746 " fill="none" id="Bread-to-BreadSize" style="stroke:#181818;stroke-width:1.0;"/><polygon fill="#181818" points="341.02,1308.73,341.3237,1298.8858,339.1312,1304.1005,333.9165,1301.9079,341.02,1308.73" style="stroke:#181818;stroke-width:1.0;"/></g><!--link Order to DrinkSize--><g id="link_Order_DrinkSize"><path codeLine="94" d="M744.5,863.16 C744.5,889.61 744.5,910.75 744.5,932.8 " fill="none" id="Order-to-DrinkSize" style="stroke:#181818;stroke-width:1.0;"/><polygon fill="#181818" points="744.5,938.8,748.5,929.8,744.5,933.8,740.5,929.8,744.5,938.8" style="stroke:#181818;stroke-width:1.0;"/></g><!--link SandwichBuilder to Sandwich--><g id="link_SandwichBuilder_Sandwich"><path codeLine="108" d="M179.68,806.04 C202.12,823.97 227.93,844.5 251.5,863 C276.48,882.6 299.0497,900.1146 323.9197,919.3046 " fill="none" id="SandwichBuilder-to-Sandwich" style="stroke:#181818;stroke-width:1.0;"/><polygon fill="#181818" points="328.67,922.97,323.9882,914.3051,324.7114,919.9155,319.101,920.6388,328.67,922.97" style="stroke:#181818;stroke-width:1.0;"/></g><!--link SpecialsManager to Sandwich--><g id="link_SpecialsManager_Sandwich"><path codeLine="109" d="M411.5,798.21 C411.5,832.53 411.5,876.77 411.5,916.71 " fill="none" id="SpecialsManager-to-Sandwich" style="stroke:#181818;stroke-width:1.0;"/><polygon fill="#181818" points="411.5,922.71,415.5,913.71,411.5,917.71,407.5,913.71,411.5,922.71" style="stroke:#181818;stroke-width:1.0;"/></g><!--SRC=[ZLHDRzim3BtxLmYvr6kMmwv1KI19lIP0qXQnis8OXa6nYKIeRNcIt3Kh-jz7VTcEtM6xY1H5Ya_K8o_8XhAIB78g9SWWrTAQNWD2ngH0DQJY8ASaLeALXs_VFqp9CsSP7az8ncILqvCEs41PXtZ6IXMy1UwcMLNzxsLZ8XKLAiJr0De1XJzjxhiN6GXpsuHmhT_LnHw4pQgDafRPBvOU0NEicLHNiJDSMxoOzGcFDhIwkj5wp7x3Hx8g5Hn0M9_qo2hPtgYuelc3O2c2odYzpy60FK09WYemYEAwAAWuwUVRXnaNH94-yLg5tKVIBFEGGWyMevpMypGGGuaOfwI1s_DPQBZXpvgMYgcJmJqecx_ULMulW6PJCjV2lR6g4BN-5r1NYTtPQZ2PS2eLeF-UynnewHCxjz05JuapTF49AFWp_CkpmMaGTK4cfmeSKAss1x6foTohbZ-W6izGdKUUySpvwK1Nt6O_WEIWEb05K8NimTLH1K1Y-C98On9mg7EAZDnQnR6orlI9jN1LZLwKe6rDCTy5kTsjUfsuv0MurDs-i0pa2O-Fl3gZ5xmmXKqN3Yc0djt6cTfUUfyFGsAwmkMGTchNOwB_vgvvq0FceL5P5pB0WL6qFsJ0FIvNIMHaD4jGRh-QtNRse0FR09tU17o-tsr_hEuMIzIZrUqoyPlaCLf_YUpEXpOjP4BZpMozHhc9RbQx3IhhsVOsiW2ta5F5U2brSmLcX4qcrtwS1NwiQPl-ei3yazxfCWUcrdfdIso7rkZJY5nE9cHqEMghsZHcSuhI_iFm20DTYGFRA3f5snizcsaBcrhRchVhv-qKot5OzCZcCyvhblinEswu4AS2e3GZxY-S2C-RJDiTNlaE7oj86StbXfP8Q9_i5LckMFf6C1aEr_aw6IJikJmSMPwVR0FYcA9FPm6OhlygyqjD_NiekeT_0000]--></g></svg>